<svg xmlns="http://www.w3.org/2000/svg" height="800" width="1200" viewBox="-66.036 -106.13 572.312 636.78"><path d="M402.15 281.24l-12.68 3.95 8 10.6a27.58 27.58 0 01-17.49 43.86l-12.68 2.12 5.93 11.41a27.59 27.59 0 01-22.77 40.24l-159.49.07c-.47 0-19.76-.38-33.9-12.41a37.43 37.43 0 00-8.85-5.8l-3.46-1.55V226.31l16.63-14.22 56.13-104a46.25 46.25 0 006.57-27.55l-4.44-58.37a25.8 25.8 0 0112.75-3.38c24.23 0 45 38.72 45 70.41a87.18 87.18 0 01-1 13.14l-9.75 63.2h121.69a30 30 0 0121.06 8.89 26.66 26.66 0 018 19 27.47 27.47 0 01-11 21.83l-11.31 8.58 12.35 7a27.66 27.66 0 01-5.33 50.49z" fill="#fff"/><path d="M9.96 197.31a.61.61 0 00-.61.53v216.81a.6.6 0 00.61.52h124.87a.6.6 0 00.61-.52V197.82a.61.61 0 00-.61-.53z" fill="#4267b2"/><path d="M440.24 254.82a46.43 46.43 0 00-14-33.13 45.93 45.93 0 009.86-28.23 45.21 45.21 0 00-13.47-32.27 48.78 48.78 0 00-34.33-14.42h-99.82l6.43-41.66a106.66 106.66 0 001.21-16C296.12 47.91 268.3 0 232.43 0a44.52 44.52 0 00-28.46 10.31l-3.7 3.08 5.21 68.47a27.61 27.61 0 01-4 16.59l-54.86 101.68-2.05 1.76a19.24 19.24 0 00-19-16.42H19.21A19.23 19.23 0 000 204.68v200.63a19.23 19.23 0 0019.21 19.21h106.37a19.23 19.23 0 0019.18-19.21V395.2l.15.12c19.6 16.67 44.92 16.86 46 16.86l159.85-.06h.51a46.3 46.3 0 0042.49-57.14 46.35 46.35 0 0024.38-60.58 46.14 46.14 0 0022.1-39.58zM126.1 405.31a.56.56 0 01-.52.52H19.21a.55.55 0 01-.51-.52V204.68a.55.55 0 01.51-.52h106.37a.56.56 0 01.52.52zm276.05-124.07l-12.68 3.95 8 10.6a27.58 27.58 0 01-17.49 43.86l-12.68 2.12 5.93 11.41a27.59 27.59 0 01-22.77 40.24l-159.49.07c-.47 0-19.76-.38-33.9-12.41a37.43 37.43 0 00-8.85-5.8l-3.46-1.55V226.31l16.63-14.22 56.13-104a46.25 46.25 0 006.57-27.55l-4.44-58.37a25.8 25.8 0 0112.75-3.38c24.23 0 45 38.72 45 70.41a87.18 87.18 0 01-1 13.14l-9.75 63.2h121.69a30 30 0 0121.06 8.89 26.66 26.66 0 018 19 27.47 27.47 0 01-11 21.83l-11.31 8.58 12.35 7a27.66 27.66 0 01-5.33 50.49z" fill="#32363b"/></svg>